<?xml version="1.0" encoding="UTF-8"?>
<svg version="1.1" xmlns="http://www.w3.org/2000/svg" width="128" height="128">
<path d="M0 0 C1.10408203 0.82951172 1.10408203 0.82951172 2.23046875 1.67578125 C2.99746094 2.23910156 3.76445313 2.80242188 4.5546875 3.3828125 C15.03336073 11.83335543 20.45880783 23.33429639 22.91796875 36.30078125 C24.26233814 50.81997062 20.94068221 64.55878557 12.2265625 76.3984375 C2.28174398 88.19345481 -10.75278831 94.27291673 -25.98046875 95.9140625 C-37.94693721 96.32446485 -50.19650477 92.86812513 -59.76953125 85.67578125 C-60.53652344 85.11246094 -61.30351563 84.54914063 -62.09375 83.96875 C-72.57242323 75.51820707 -77.99787033 64.01726611 -80.45703125 51.05078125 C-81.80424846 36.50083536 -78.4230163 22.92345339 -69.8359375 10.98828125 C-52.98521531 -9.29442289 -22.26202835 -15.02780138 0 0 Z " fill="#F8F9F9" transform="translate(92.76953125,20.32421875)"/>
<path d="M0 0 C3.63875536 1.94066953 5.3723234 4.51880954 7.6875 7.8125 C10.73988059 12.11939303 14.41410927 14.5069642 18.92578125 17.1640625 C21 19 21 19 21.89453125 21.921875 C22.09292789 27.71211778 19.50757318 32.2339857 15.8125 36.5625 C11.87055976 38.57726946 8.34798994 38.4966805 4 38 C3.01 37.67 2.02 37.34 1 37 C-1.14413223 36.90495372 -3.2912677 36.87012774 -5.4375 36.875 C-6.57058594 36.87242188 -7.70367187 36.86984375 -8.87109375 36.8671875 C-11.48312839 36.97806038 -13.51303082 37.30004279 -16 38 C-23.63439982 38.73881289 -23.63439982 38.73881289 -27.375 35.75 C-31.59205231 31.33213567 -32.80461523 27.58853928 -32.70703125 21.51171875 C-31.51897715 17.29117296 -28.29330494 16.0071885 -24.67578125 13.86328125 C-20.92136551 11.24889248 -18.92489145 7.99988472 -16.5703125 4.13671875 C-12.55212683 -1.3308125 -6.20352748 -0.72220171 0 0 Z " fill="#5EE1E6" transform="translate(69,60)"/>
<path d="M0 0 C3.1875 0.375 3.1875 0.375 5.4375 2.5 C8.4896487 7.5142443 9.75508059 11.60900109 8.78515625 17.40625 C7.66400185 21.0994645 6.12497307 22.8206756 3.1875 25.375 C-0.375 26 -0.375 26 -3.8125 25.375 C-6.63306198 23.14824054 -8.5485348 21.15865056 -9.0859375 17.52734375 C-9.38612159 10.98102157 -7.46748676 6.7436363 -3.8125 1.375 C-2.8125 0.375 -2.8125 0.375 0 0 Z " fill="#60E1E6" transform="translate(75.8125,29.625)"/>
<path d="M0 0 C3.87762615 0.61689507 6.1738472 2.62445959 8.75 5.4375 C11.62749982 9.84966639 12.32129253 13.20065182 11.75 18.4375 C10.47833274 21.29875133 9.42507529 22.92537391 6.9375 24.8125 C3.79769336 25.70958761 1.86164779 25.40988994 -1.25 24.4375 C-5.87435377 19.56318116 -6.47577582 16.41430573 -6.41015625 9.91796875 C-6.11754059 5.38599456 -4.91821818 0.9563202 0 0 Z " fill="#60E1E6" transform="translate(34.25,46.5625)"/>
<path d="M0 0 C2.625 0.4375 2.625 0.4375 4.8125 2.6875 C8.71919187 8.61489457 9.63510429 13.32468229 8.625 20.4375 C6.5625 23.625 6.5625 23.625 3.625 25.4375 C0.0625 26 0.0625 26 -3.375 25.4375 C-6.28217073 23.21886971 -7.21481643 21.91805071 -8.375 18.4375 C-8.91194064 13.32336049 -8.96134539 9.53201139 -6.5 4.9375 C-2.73069423 0.50302262 -2.73069423 0.50302262 0 0 Z " fill="#5EE1E6" transform="translate(53.375,29.5625)"/>
<path d="M0 0 C3.26379261 1.587791 3.99123093 2.7175166 5.3125 6.125 C6.34015243 12.69745841 5.3584889 17.16927929 1.6015625 22.62890625 C-0.30623819 24.8431113 -1.60122842 25.11157998 -4.5 25.5625 C-7.6875 25.125 -7.6875 25.125 -10.5625 22.5625 C-13.10534985 19.0568235 -13.3696136 16.44505279 -12.6875 12.125 C-10.24572011 6.67795256 -6.60444569 0.30718352 0 0 Z " fill="#60E1E6" transform="translate(94.6875,46.875)"/>
</svg>
